<svg width="45" height="45" viewBox="0 0 45 45" fill="none" xmlns="http://www.w3.org/2000/svg">
<path fill-rule="evenodd" clip-rule="evenodd" d="M26.116 14.2636C26.116 19.1215 22.1407 23.0146 17.1802 23.0146C12.2214 23.0146 8.24437 19.1215 8.24437 14.2636C8.24437 9.40571 12.2214 5.5127 17.1802 5.5127C22.1407 5.5127 26.116 9.40571 26.116 14.2636ZM3.67578 32.9234C3.67578 28.4264 9.89669 27.3013 17.1802 27.3013C24.5032 27.3013 30.6846 28.4651 30.6846 32.9656C30.6846 37.4626 24.4637 38.5877 17.1802 38.5877C9.85713 38.5877 3.67578 37.4238 3.67578 32.9234ZM29.7194 14.4223C29.7194 16.8961 28.9607 19.2045 27.6302 21.1219C27.4918 21.3191 27.614 21.585 27.855 21.6273C28.1894 21.6818 28.5328 21.7153 28.8834 21.7223C32.3714 21.8121 35.5016 19.613 36.3665 16.301C37.6484 11.3867 33.8871 6.97429 29.0956 6.97429C28.5759 6.97429 28.0779 7.02712 27.5925 7.12396C27.5259 7.13804 27.454 7.16974 27.4181 7.22608C27.3713 7.29827 27.4055 7.39159 27.4522 7.45322C28.8924 9.43054 29.7194 11.8375 29.7194 14.4223ZM35.4963 25.1782C37.8408 25.6272 39.3816 26.541 40.0199 27.8739C40.5611 28.9655 40.5611 30.2333 40.0199 31.3249C39.0436 33.3885 35.8936 34.0524 34.6692 34.2231C34.4157 34.2584 34.2125 34.0471 34.2395 33.797C34.8652 28.0781 29.8902 25.3666 28.6029 24.7433C28.549 24.7133 28.5364 24.6711 28.5418 24.6429C28.5454 24.6253 28.5688 24.5971 28.6101 24.5918C31.3951 24.539 34.3905 24.9141 35.4963 25.1782Z" fill="#FDC761"/>
</svg>
