<svg width="48" height="48" viewBox="0 0 48 48" fill="none" xmlns="http://www.w3.org/2000/svg">
<path d="M24.0002 44.0004C12.9702 44.0004 4.00024 35.0284 4.00024 24.0004C4.00024 12.9724 12.9702 4.00039 24.0002 4.00039C35.0282 4.0004 44.0002 12.9724 44.0002 24.0004C44.0002 35.0284 35.0282 44.0004 24.0002 44.0004Z" fill="white" fill-opacity="0.8"/>
<path d="M26.885 32.4418C26.503 32.4418 26.119 32.2958 25.827 32.0038L18.853 25.0638C18.571 24.7818 18.413 24.3998 18.413 23.9998C18.413 23.6018 18.571 23.2198 18.853 22.9378L25.827 15.9938C26.413 15.4098 27.361 15.4098 27.947 15.9978C28.531 16.5858 28.529 17.5358 27.943 18.1198L22.037 23.9998L27.943 29.8798C28.529 30.4638 28.531 31.4118 27.947 31.9998C27.655 32.2958 27.269 32.4418 26.885 32.4418Z" fill="#606060"/>
</svg>
