<svg width="6" height="10" viewBox="0 0 6 10" fill="none" xmlns="http://www.w3.org/2000/svg">
<path fill-rule="evenodd" clip-rule="evenodd" d="M3.26058 0.163516C3.35828 0.234041 3.51584 0.396039 3.51584 0.396039C4.1275 0.969316 5.04877 2.39518 5.34462 3.11858C5.35081 3.11858 5.52626 3.54871 5.53314 3.75331V3.78054C5.53314 4.09406 5.35769 4.38733 5.0756 4.53746C4.95931 4.59935 4.67646 4.65692 4.53999 4.68469C4.49479 4.69388 4.46565 4.69981 4.46394 4.70155C4.06076 4.763 3.44222 4.8035 2.76313 4.8035C2.05033 4.8035 1.40496 4.763 1.00796 4.68759C1.00108 4.68759 0.638492 4.61287 0.517399 4.56469C0.342639 4.48998 0.194713 4.35312 0.100452 4.18274C0.0330255 4.04658 0 3.90273 0 3.75331C0.00619228 3.5962 0.107333 3.30292 0.154119 3.18701C0.449972 2.42241 1.41803 0.962334 2.00974 0.403022C2.0712 0.340643 2.14115 0.275294 2.18982 0.229822C2.21579 0.20556 2.23571 0.186957 2.24504 0.177482C2.39297 0.0615695 2.57461 0.00012207 2.77001 0.00012207C2.94408 0.00012207 3.11884 0.0545869 3.26058 0.163516ZM2.21732 6.37188C2.21732 6.06394 2.46295 5.81466 2.76637 5.81466C3.06979 5.81466 3.31542 6.06394 3.31542 6.37188L3.4661 9.0637C3.4661 9.45612 3.15304 9.77384 2.76637 9.77384C2.3797 9.77384 2.06595 9.45612 2.06595 9.0637L2.21732 6.37188Z" fill="#606060"/>
</svg>
