<svg width="30" height="30" viewBox="0 0 30 30" fill="none" xmlns="http://www.w3.org/2000/svg">
<path d="M3.43762 4.0625L6.03762 4.5125L7.24137 18.8538C7.33762 20.025 8.31637 20.9238 9.49137 20.92H23.1276C24.2489 20.9225 25.2001 20.0975 25.3589 18.9875L26.5451 10.79C26.6776 9.87375 26.0414 9.02375 25.1264 8.89125C25.0464 8.88 6.45512 8.87375 6.45512 8.87375" stroke="#606060" stroke-width="2" stroke-linecap="round" stroke-linejoin="round"/>
<path d="M17.6564 13.4937H21.1226" stroke="#606060" stroke-width="2" stroke-linecap="round" stroke-linejoin="round"/>
<path fill-rule="evenodd" clip-rule="evenodd" d="M8.943 25.2534C9.31925 25.2534 9.623 25.5584 9.623 25.9334C9.623 26.3097 9.31925 26.6147 8.943 26.6147C8.56675 26.6147 8.263 26.3097 8.263 25.9334C8.263 25.5584 8.56675 25.2534 8.943 25.2534Z" fill="#606060" stroke="#606060" stroke-width="2" stroke-linecap="round" stroke-linejoin="round"/>
<path fill-rule="evenodd" clip-rule="evenodd" d="M23.0433 25.2534C23.4196 25.2534 23.7246 25.5584 23.7246 25.9334C23.7246 26.3097 23.4196 26.6147 23.0433 26.6147C22.6671 26.6147 22.3633 26.3097 22.3633 25.9334C22.3633 25.5584 22.6671 25.2534 23.0433 25.2534Z" fill="#606060" stroke="#606060" stroke-width="2" stroke-linecap="round" stroke-linejoin="round"/>
</svg>
