<svg width="25" height="24" viewBox="0 0 25 24" fill="none" xmlns="http://www.w3.org/2000/svg">
<path fill-rule="evenodd" clip-rule="evenodd" d="M14.4221 11.2331H17.1899C17.6096 11.2331 17.9393 10.8861 17.9393 10.4677C17.9393 10.0391 17.6096 9.70236 17.1899 9.70236H14.4221C14.0024 9.70236 13.6727 10.0391 13.6727 10.4677C13.6727 10.8861 14.0024 11.2331 14.4221 11.2331ZM20.4774 5.92749C21.0869 5.92749 21.4866 6.1418 21.8863 6.61123C22.2859 7.08067 22.3559 7.7542 22.266 8.36549L21.3167 15.06C21.1368 16.3469 20.0577 17.2949 18.7887 17.2949H7.88717C6.55821 17.2949 5.45906 16.255 5.34915 14.908L4.42986 3.7834L2.92104 3.51807C2.52135 3.44664 2.24157 3.04864 2.31152 2.64043C2.38146 2.22305 2.77116 1.94649 3.18084 2.00874L5.56398 2.3751C5.90372 2.43735 6.15352 2.72207 6.1835 3.06905L6.37335 5.35499C6.40333 5.68257 6.66312 5.92749 6.98287 5.92749H20.4774ZM7.72709 18.9079C6.88775 18.9079 6.20828 19.6018 6.20828 20.459C6.20828 21.3061 6.88775 22 7.72709 22C8.55645 22 9.23592 21.3061 9.23592 20.459C9.23592 19.6018 8.55645 18.9079 7.72709 18.9079ZM18.9683 18.9079C18.129 18.9079 17.4495 19.6018 17.4495 20.459C17.4495 21.3061 18.129 22 18.9683 22C19.7977 22 20.4772 21.3061 20.4772 20.459C20.4772 19.6018 19.7977 18.9079 18.9683 18.9079Z" fill="#B6B6B6"/>
</svg>
