<svg width="25" height="24" viewBox="0 0 25 24" fill="none" xmlns="http://www.w3.org/2000/svg">
<path fill-rule="evenodd" clip-rule="evenodd" d="M7.63078 2.00018H16.9698C20.3708 2.00018 22.2908 3.92918 22.3008 7.33018V16.6702C22.3008 20.0702 20.3708 22.0002 16.9698 22.0002H7.63078C4.22978 22.0002 2.30078 20.0702 2.30078 16.6702V7.33018C2.30078 3.92918 4.22978 2.00018 7.63078 2.00018ZM12.3498 17.8602C12.7808 17.8602 13.1398 17.5402 13.1798 17.1102V6.92018C13.2198 6.61018 13.0708 6.29918 12.8008 6.13018C12.5198 5.96018 12.1798 5.96018 11.9108 6.13018C11.6398 6.29918 11.4908 6.61018 11.5198 6.92018V17.1102C11.5708 17.5402 11.9298 17.8602 12.3498 17.8602ZM16.9508 17.8602C17.3708 17.8602 17.7298 17.5402 17.7808 17.1102V13.8302C17.8098 13.5092 17.6608 13.2102 17.3898 13.0402C17.1208 12.8702 16.7808 12.8702 16.5008 13.0402C16.2298 13.2102 16.0808 13.5092 16.1208 13.8302V17.1102C16.1608 17.5402 16.5198 17.8602 16.9508 17.8602ZM8.51981 17.1102C8.47981 17.5402 8.12081 17.8602 7.68981 17.8602C7.25981 17.8602 6.89981 17.5402 6.86081 17.1102V10.2002C6.83081 9.88918 6.97981 9.58018 7.25081 9.41018C7.51981 9.24018 7.86081 9.24018 8.13081 9.41018C8.39981 9.58018 8.55081 9.88918 8.51981 10.2002V17.1102Z" fill="#B6B6B6"/>
</svg>
