<svg width="46" height="45" viewBox="0 0 46 45" fill="none" xmlns="http://www.w3.org/2000/svg">
<path fill-rule="evenodd" clip-rule="evenodd" d="M14.4072 4.21674H31.5676C37.8169 4.21674 41.3449 7.76127 41.3633 14.0106V31.1729C41.3633 37.4204 37.8169 40.9667 31.5676 40.9667H14.4072C8.15782 40.9667 4.61328 37.4204 4.61328 31.1729V14.0106C4.61328 7.76127 8.15782 4.21674 14.4072 4.21674ZM23.0784 33.3595C23.8704 33.3595 24.5301 32.7715 24.6036 31.9814V13.2572C24.6771 12.6876 24.4033 12.1161 23.9072 11.8056C23.3908 11.4932 22.7661 11.4932 22.2718 11.8056C21.7738 12.1161 21.5 12.6876 21.5533 13.2572V31.9814C21.647 32.7715 22.3067 33.3595 23.0784 33.3595ZM31.5328 33.3595C32.3045 33.3595 32.9642 32.7715 33.0579 31.9814V25.9544C33.1112 25.3645 32.8374 24.8151 32.3394 24.5027C31.8452 24.1904 31.2204 24.1904 30.7059 24.5027C30.2079 24.8151 29.9342 25.3645 30.0077 25.9544V31.9814C30.0812 32.7715 30.7408 33.3595 31.5328 33.3595ZM16.0408 31.9814C15.9673 32.7715 15.3076 33.3595 14.5156 33.3595C13.7255 33.3595 13.064 32.7715 12.9923 31.9814V19.2842C12.9372 18.7128 13.211 18.145 13.709 17.8326C14.2033 17.5202 14.8298 17.5202 15.326 17.8326C15.8203 18.145 16.0977 18.7128 16.0408 19.2842V31.9814Z" fill="#FDC761"/>
</svg>
