<svg width="6" height="10" viewBox="0 0 6 10" fill="none" xmlns="http://www.w3.org/2000/svg">
<path fill-rule="evenodd" clip-rule="evenodd" d="M3.78282 3.40203C3.78282 3.70997 3.5372 3.95926 3.23377 3.95926C2.93035 3.95926 2.68473 3.70997 2.68473 3.40203L2.53336 0.710152C2.53336 0.317718 2.8471 0 3.23377 0C3.62045 0 3.9335 0.317718 3.9335 0.710152L3.78282 3.40203ZM5.4826 5.20909C5.65736 5.28451 5.80529 5.42067 5.89955 5.59105C5.96698 5.72722 6 5.87106 6 6.02119C5.99381 6.17761 5.89267 6.47159 5.84519 6.5875C5.55003 7.35142 4.58128 8.81153 3.99026 9.37155C3.92982 9.43245 3.86117 9.4965 3.81262 9.5418C3.78546 9.56715 3.76458 9.58663 3.75496 9.5964C3.60634 9.71231 3.42539 9.77376 3.23068 9.77376C3.05523 9.77376 2.88047 9.71929 2.73942 9.60966C2.64172 9.53983 2.48416 9.37783 2.48416 9.37783C1.87182 8.80524 0.951232 7.37865 0.655378 6.65523C0.648498 6.65523 0.473738 6.22579 0.466858 6.02119V5.99396C0.466858 5.67973 0.641618 5.38646 0.924398 5.23632C1.04046 5.17508 1.32241 5.11736 1.45919 5.08936C1.50485 5.08001 1.53434 5.07398 1.53606 5.07223C1.93924 5.01078 2.55778 4.97028 3.23687 4.97028C3.94967 4.97028 4.59504 5.01078 4.99204 5.08619C4.99823 5.08619 5.36151 5.16091 5.4826 5.20909Z" fill="#606060"/>
</svg>
