<svg width="40" height="40" viewBox="0 0 40 40" fill="none" xmlns="http://www.w3.org/2000/svg">
<path fill-rule="evenodd" clip-rule="evenodd" d="M33.9973 15.2433L35.1978 16.4433C36.1481 17.3766 36.665 18.6433 36.665 19.9766C36.6816 21.31 36.1648 22.5783 35.2311 23.5266C35.22 23.5389 35.2089 23.5496 35.1978 23.5603C35.1922 23.5657 35.1867 23.5711 35.1811 23.5766L33.9973 24.76C33.5305 25.2266 33.2637 25.86 33.2637 26.5283V28.2433C33.2637 31.01 31.0129 33.2616 28.2453 33.2616H26.528C25.8611 33.2616 25.2275 33.5266 24.7607 33.9933L23.5602 35.1933C22.5765 36.1783 21.2927 36.66 20.0089 36.66C18.7251 36.66 17.4413 36.1783 16.4576 35.2116L15.2405 33.9933C14.7737 33.5266 14.1401 33.2616 13.4732 33.2616H11.7559C8.98827 33.2616 6.73746 31.01 6.73746 28.2433V26.5283C6.73746 25.86 6.4707 25.2266 6.00386 24.7433L4.80342 23.56C2.85272 21.6116 2.83604 18.4266 4.78675 16.4616L6.00386 15.2433C6.4707 14.7766 6.73746 14.1433 6.73746 13.46V11.76C6.73746 8.99331 8.98827 6.74498 11.7559 6.74498H13.4732C14.1401 6.74498 14.7737 6.47665 15.2405 6.00998L16.441 4.80998C18.3917 2.84498 21.5762 2.84498 23.5435 4.79498L24.7607 6.00998C25.2275 6.47665 25.8611 6.74498 26.528 6.74498H28.2453C31.0129 6.74498 33.2637 8.99331 33.2637 11.76V13.4783C33.2637 14.1433 33.5305 14.7766 33.9973 15.2433ZM15.7074 25.7433C16.1075 25.7433 16.4743 25.5933 16.7411 25.31L25.3109 16.745C25.8777 16.1783 25.8777 15.2433 25.3109 14.6766C24.744 14.1116 23.827 14.1116 23.2601 14.6766L14.6903 23.2433C14.1235 23.81 14.1235 24.7433 14.6903 25.31C14.9571 25.5933 15.3239 25.7433 15.7074 25.7433ZM22.8266 24.2766C22.8266 25.0933 23.4769 25.7433 24.2938 25.7433C25.0941 25.7433 25.7443 25.0933 25.7443 24.2766C25.7443 23.4783 25.0941 22.8266 24.2938 22.8266C23.4769 22.8266 22.8266 23.4783 22.8266 24.2766ZM15.724 14.26C16.5243 14.26 17.1746 14.91 17.1746 15.71C17.1746 16.5283 16.5243 17.1766 15.724 17.1766C14.9238 17.1766 14.2569 16.5283 14.2569 15.71C14.2569 14.91 14.9238 14.26 15.724 14.26Z" fill="#4C4C4C"/>
</svg>
