<svg width="46" height="45" viewBox="0 0 46 45" fill="none" xmlns="http://www.w3.org/2000/svg">
<path fill-rule="evenodd" clip-rule="evenodd" d="M38.4218 17.3458L39.7453 18.6688C40.793 19.6978 41.3629 21.0943 41.3629 22.5643C41.3812 24.0343 40.8114 25.4327 39.782 26.4782C39.7698 26.4917 39.7575 26.5035 39.7453 26.5153C39.7391 26.5213 39.733 26.5272 39.7269 26.5333L38.4218 27.8379C37.9071 28.3524 37.613 29.0507 37.613 29.7875V31.6783C37.613 34.7286 35.1315 37.211 32.0801 37.211H30.1868C29.4515 37.211 28.753 37.5032 28.2383 38.0177L26.9149 39.3407C25.8303 40.4267 24.415 40.9577 22.9996 40.9577C21.5842 40.9577 20.1688 40.4267 19.0843 39.3609L17.7424 38.0177C17.2277 37.5032 16.5292 37.211 15.794 37.211H13.9006C10.8493 37.211 8.36776 34.7286 8.36776 31.6783V29.7875C8.36776 29.0507 8.07366 28.3524 7.55897 27.8196L6.23549 26.5149C4.08484 24.3669 4.06646 20.8554 6.21711 18.689L7.55897 17.3458C8.07366 16.8313 8.36776 16.1331 8.36776 15.3797V13.5054C8.36776 10.4552 10.8493 7.97641 13.9006 7.97641H15.794C16.5292 7.97641 17.2277 7.68057 17.7424 7.16607L19.0659 5.84307C21.2165 3.67666 24.7274 3.67666 26.8965 5.82653L28.2383 7.16607C28.753 7.68057 29.4515 7.97641 30.1868 7.97641H32.0801C35.1315 7.97641 37.613 10.4552 37.613 13.5054V15.3999C37.613 16.1331 37.9071 16.8313 38.4218 17.3458ZM18.2571 28.9221C18.6983 28.9221 19.1027 28.7567 19.3968 28.4443L28.8449 19.0014C29.4699 18.3767 29.4699 17.3458 28.8449 16.7211C28.22 16.0982 27.209 16.0982 26.584 16.7211L17.1358 26.1658C16.5108 26.7906 16.5108 27.8196 17.1358 28.4443C17.4299 28.7567 17.8343 28.9221 18.2571 28.9221ZM26.1061 27.3051C26.1061 28.2054 26.823 28.9221 27.7237 28.9221C28.606 28.9221 29.3229 28.2054 29.3229 27.3051C29.3229 26.4249 28.606 25.7064 27.7237 25.7064C26.823 25.7064 26.1061 26.4249 26.1061 27.3051ZM18.2755 16.2617C19.1578 16.2617 19.8747 16.9783 19.8747 17.8603C19.8747 18.7625 19.1578 19.4773 18.2755 19.4773C17.3932 19.4773 16.6579 18.7625 16.6579 17.8603C16.6579 16.9783 17.3932 16.2617 18.2755 16.2617Z" fill="#FDC761"/>
</svg>
