<svg width="25" height="24" viewBox="0 0 25 24" fill="none" xmlns="http://www.w3.org/2000/svg">
<path fill-rule="evenodd" clip-rule="evenodd" d="M8.11078 2H16.4918C19.5808 2 21.3008 3.78 21.3008 6.83V17.16C21.3008 20.26 19.5808 22 16.4918 22H8.11078C5.07078 22 3.30078 20.26 3.30078 17.16V6.83C3.30078 3.78 5.07078 2 8.11078 2ZM8.38092 6.66V6.65H11.3699C11.8009 6.65 12.1509 7 12.1509 7.429C12.1509 7.87 11.8009 8.22001 11.3699 8.22001H8.38092C7.94992 8.22001 7.60092 7.87 7.60092 7.44C7.60092 7.01 7.94992 6.66 8.38092 6.66ZM8.38092 12.74H16.2209C16.6509 12.74 17.0009 12.39 17.0009 11.96C17.0009 11.53 16.6509 11.179 16.2209 11.179H8.38092C7.94992 11.179 7.60092 11.53 7.60092 11.96C7.60092 12.39 7.94992 12.74 8.38092 12.74ZM8.38081 17.31H16.2208C16.6198 17.27 16.9208 16.929 16.9208 16.53C16.9208 16.12 16.6198 15.78 16.2208 15.74H8.38081C8.08081 15.71 7.79081 15.85 7.63081 16.11C7.47081 16.36 7.47081 16.69 7.63081 16.95C7.79081 17.2 8.08081 17.35 8.38081 17.31Z" fill="#FDC761"/>
</svg>
