<svg width="30" height="34" viewBox="0 0 30 34" fill="none" xmlns="http://www.w3.org/2000/svg">
<path fill-rule="evenodd" clip-rule="evenodd" d="M8.01667 0.333313H21.985C27.1333 0.333313 30 3.29998 30 8.38331V25.6C30 30.7666 27.1333 33.6666 21.985 33.6666H8.01667C2.95 33.6666 0 30.7666 0 25.6V8.38331C0 3.29998 2.95 0.333313 8.01667 0.333313ZM8.4669 8.09999V8.08332H13.4486C14.1669 8.08332 14.7502 8.66665 14.7502 9.38165C14.7502 10.1167 14.1669 10.7 13.4486 10.7H8.4669C7.74857 10.7 7.1669 10.1167 7.1669 9.39999C7.1669 8.68332 7.74857 8.09999 8.4669 8.09999ZM8.4669 18.2333H21.5336C22.2502 18.2333 22.8336 17.65 22.8336 16.9333C22.8336 16.2166 22.2502 15.6316 21.5336 15.6316H8.4669C7.74857 15.6316 7.1669 16.2166 7.1669 16.9333C7.1669 17.65 7.74857 18.2333 8.4669 18.2333ZM8.46671 25.85H21.5334C22.1984 25.7833 22.7 25.215 22.7 24.55C22.7 23.8666 22.1984 23.3 21.5334 23.2333H8.46671C7.96671 23.1833 7.48338 23.4166 7.21671 23.85C6.95005 24.2666 6.95005 24.8166 7.21671 25.25C7.48338 25.6666 7.96671 25.9166 8.46671 25.85Z" fill="#4C4C4C"/>
</svg>
