<svg width="45" height="45" viewBox="0 0 45 45" fill="none" xmlns="http://www.w3.org/2000/svg">
<path fill-rule="evenodd" clip-rule="evenodd" d="M14.6438 3.75H30.3581C36.15 3.75 39.375 7.0875 39.375 12.8062V32.175C39.375 37.9875 36.15 41.25 30.3581 41.25H14.6438C8.94375 41.25 5.625 37.9875 5.625 32.175V12.8062C5.625 7.0875 8.94375 3.75 14.6438 3.75ZM15.1503 12.4875V12.4688H20.7546C21.5628 12.4688 22.219 13.125 22.219 13.9294C22.219 14.7563 21.5628 15.4125 20.7546 15.4125H15.1503C14.3421 15.4125 13.6878 14.7563 13.6878 13.95C13.6878 13.1438 14.3421 12.4875 15.1503 12.4875ZM15.1503 23.8875H29.8503C30.6565 23.8875 31.3128 23.2312 31.3128 22.425C31.3128 21.6187 30.6565 20.9606 29.8503 20.9606H15.1503C14.3421 20.9606 13.6878 21.6187 13.6878 22.425C13.6878 23.2312 14.3421 23.8875 15.1503 23.8875ZM15.1501 32.4563H29.8501C30.5982 32.3813 31.1626 31.7419 31.1626 30.9938C31.1626 30.225 30.5982 29.5875 29.8501 29.5125H15.1501C14.5876 29.4562 14.0438 29.7188 13.7438 30.2063C13.4438 30.675 13.4438 31.2938 13.7438 31.7813C14.0438 32.25 14.5876 32.5313 15.1501 32.4563Z" fill="#FDC761"/>
</svg>
