<svg width="450" height="180" viewBox="0 0 450 180" fill="none" xmlns="http://www.w3.org/2000/svg">
<path opacity="0.4" d="M127.102 140H80.8985C67.4462 140 56.5 129.155 56.5 115.823V89.1772C56.5 75.8447 67.4462 65 80.8985 65H127.102C140.554 65 151.5 75.8447 151.5 89.1772V115.823C151.5 129.155 140.554 140 127.102 140" fill="#EEEEEE"/>
<path d="M122.776 80C120.72 80 119.051 78.3817 119.051 76.3877V61.7845C119.051 53.7556 112.318 47.2246 104.045 47.2246C100.236 47.2246 96.2385 48.708 93.3931 51.4389C90.5427 54.1794 88.9636 57.8254 88.9487 61.717V76.3877C88.9487 78.3817 87.2802 80 85.2243 80C83.1685 80 81.5 78.3817 81.5 76.3877V61.7845C81.5248 55.8651 83.8885 50.4034 88.1492 46.3143C92.4049 42.2155 97.907 40.1589 104.06 40C116.424 40 126.5 49.7724 126.5 61.7845V76.3877C126.5 78.3817 124.831 80 122.776 80" fill="#EEEEEE"/>
<path d="M222.512 84.712H239.936V89.224H222.512V84.712ZM196.544 76.984H218.576V80.344H196.544V76.984ZM196.064 93.64H218.096V96.904H196.064V93.64ZM229.616 86.488H234.752V99.64H229.616V86.488ZM234.656 74.44L238.88 78.136C234.32 79.912 228.176 81.16 222.944 81.832C222.704 80.776 222.032 78.952 221.456 77.896C226.16 77.128 231.536 75.784 234.656 74.44ZM202.784 100.648H233.312V119.272H227.36V104.968H208.448V119.32H202.784V100.648ZM205.712 107.32H230.192V111.16H205.712V107.32ZM205.712 113.512H230.144V117.832H205.712V113.512ZM202.016 88.12V89.8H213.296V88.12H202.016ZM202.016 84.184V85.816H213.296V84.184H202.016ZM197.792 81.736H217.664V92.2H197.792V81.736ZM205.184 74.2H210.128V99.736H205.184V74.2ZM220.16 76.168L226.352 77.512C226.304 77.992 225.968 78.232 225.2 78.376V85.336C225.2 89.8 224.288 96.136 219.056 100.216C218.432 99.016 216.752 97.096 215.6 96.376C219.632 93.112 220.16 88.84 220.16 85.144V76.168ZM253.28 74.248L258.944 75.88C256.304 81.208 252.032 86.392 248 89.56C246.944 88.504 244.64 86.68 243.296 85.816C247.328 83.128 251.168 78.712 253.28 74.248ZM252.896 79.288H285.968V84.376H251.504L252.896 79.288ZM244.304 90.472H287.696V95.608H244.304V90.472ZM245.12 101.752H287.024V106.888H245.12V101.752ZM259.328 81.112H264.176V104.44H259.328V81.112ZM250.832 81.112H255.92V104.488H250.832V81.112ZM267.68 81.112H272.48V104.488H267.68V81.112ZM276.128 81.112H281.408V104.488H276.128V81.112ZM257.888 109.576L263.216 108.952C263.84 111.88 264.416 115.672 264.464 118.024L258.8 118.84C258.8 116.488 258.464 112.552 257.888 109.576ZM267.44 109.672L272.864 108.76C274.064 111.592 275.264 115.384 275.696 117.736L269.936 118.888C269.6 116.536 268.544 112.648 267.44 109.672ZM276.992 109.432L282.512 107.704C284.672 110.632 287.408 114.712 288.608 117.4L282.752 119.368C281.696 116.728 279.152 112.504 276.992 109.432ZM249.248 107.896L254.864 109.24C253.76 112.936 251.696 116.872 249.392 119.368L243.824 117.16C246.032 115.144 248.144 111.4 249.248 107.896ZM292.928 77.896H335.12V83.08H292.928V77.896ZM310.784 74.248H316.736V80.968H310.784V74.248ZM294.512 86.872H331.424V91.816H299.984V119.224H294.512V86.872ZM328.448 86.872H334.016V113.08C334.016 115.864 333.44 117.496 331.568 118.36C329.648 119.224 326.96 119.368 323.168 119.368C322.928 117.832 322.064 115.288 321.296 113.848C323.792 113.992 326.576 113.992 327.392 113.944C328.208 113.944 328.448 113.704 328.448 113.032V86.872ZM306.608 91.192H311.696C311.312 96.952 309.68 100.216 302.048 101.944C301.616 100.744 300.416 98.872 299.408 97.96C305.36 96.904 306.368 95.032 306.608 91.192ZM315.488 91.192H320.48V94.84C320.48 95.896 320.576 95.992 321.44 95.992C321.872 95.992 323.456 95.992 323.936 95.992C324.704 95.992 324.896 95.656 325.04 93.304C325.952 93.976 327.968 94.648 329.264 94.936C328.784 99.016 327.536 100.12 324.56 100.12C323.696 100.12 321.488 100.12 320.672 100.12C316.4 100.12 315.488 98.872 315.488 94.936V91.192ZM304.688 101.944H309.776V117.064H304.688V101.944ZM307.856 101.944H323.648V114.472H307.856V110.248H318.464V106.168H307.856V101.944ZM301.52 82.984L307.232 82.024C308.096 83.56 309.008 85.624 309.392 87.016L303.44 88.216C303.152 86.824 302.288 84.616 301.52 82.984ZM320.288 81.976L326.672 82.936C325.52 85.048 324.512 86.776 323.648 88.072L317.936 87.112C318.752 85.624 319.76 83.464 320.288 81.976ZM353.504 81.64V88.12H370.4V81.64H353.504ZM347.936 76.168H376.304V93.592H347.936V76.168ZM341.36 97.624H359.696V119.032H353.936V103.096H346.784V119.32H341.36V97.624ZM363.776 97.624H382.784V119.08H376.976V103.096H369.296V119.32H363.776V97.624ZM343.76 111.4H356.336V116.92H343.76V111.4ZM366.416 111.4H379.856V116.92H366.416V111.4Z" fill="#EEEEEE"/>
</svg>
