<svg width="46" height="45" viewBox="0 0 46 45" fill="none" xmlns="http://www.w3.org/2000/svg">
<path fill-rule="evenodd" clip-rule="evenodd" d="M28.8021 11.7155C29.3811 11.7234 29.9615 11.7314 30.5438 11.7373C36.8011 11.7373 41.3633 16.1983 41.3633 22.3587V30.2717C41.3633 36.4321 36.8011 40.8931 30.5438 40.8931C28.0373 40.9462 25.5308 40.9639 23.0063 40.9639C20.4818 40.9639 17.9392 40.9462 15.4327 40.8931C9.17547 40.8931 4.61328 36.4321 4.61328 30.2717V22.3587C4.61328 16.1983 9.17547 11.7373 15.4507 11.7373C17.813 11.7019 20.2293 11.6665 22.6817 11.6665V11.3656C22.6817 10.1441 21.6539 9.15281 20.4277 9.15281H18.6425C16.6048 9.15281 14.9458 7.5242 14.9458 5.54154C14.9458 4.81575 15.5589 4.21387 16.2983 4.21387C17.0556 4.21387 17.6507 4.81575 17.6507 5.54154C17.6507 6.07261 18.1015 6.49747 18.6425 6.49747H20.4277C23.1506 6.51517 25.3686 8.69255 25.3866 11.3479V11.6842C26.5233 11.6842 27.6601 11.6998 28.8021 11.7155ZM20.8785 27.634H18.9851V29.5105C18.9851 30.2363 18.372 30.8381 17.6327 30.8381C16.8753 30.8381 16.2802 30.2363 16.2802 29.5105V27.634H14.3688C13.6295 27.634 13.0164 27.0499 13.0164 26.3064C13.0164 25.5806 13.6295 24.9787 14.3688 24.9787H16.2802V23.1199C16.2802 22.3941 16.8753 21.7923 17.6327 21.7923C18.372 21.7923 18.9851 22.3941 18.9851 23.1199V24.9787H20.8785C21.6178 24.9787 22.2309 25.5806 22.2309 26.3064C22.2309 27.0499 21.6178 27.634 20.8785 27.634ZM28.5423 24.6423H28.7226C29.4619 24.6423 30.075 24.0582 30.075 23.3147C30.075 22.5889 29.4619 21.987 28.7226 21.987H28.5423C27.7849 21.987 27.1898 22.5889 27.1898 23.3147C27.1898 24.0582 27.7849 24.6423 28.5423 24.6423ZM31.6258 30.7319H31.8061C32.5454 30.7319 33.1585 30.1478 33.1585 29.4043C33.1585 28.6785 32.5454 28.0766 31.8061 28.0766H31.6258C30.8666 28.0766 30.2734 28.6785 30.2734 29.4043C30.2734 30.1478 30.8666 30.7319 31.6258 30.7319Z" fill="#FDC761"/>
</svg>
