<svg width="46" height="45" viewBox="0 0 46 45" fill="none" xmlns="http://www.w3.org/2000/svg">
<path d="M39.2759 9.31073C38.3374 8.37177 37.223 7.62693 35.9966 7.11875C34.7701 6.61056 33.4556 6.349 32.128 6.349C30.8004 6.349 29.4859 6.61056 28.2594 7.11875C27.033 7.62693 25.9186 8.37177 24.9801 9.31073L23.0324 11.2585L21.0846 9.31073C19.1889 7.41499 16.6177 6.34998 13.9367 6.34998C11.2558 6.34998 8.68461 7.41499 6.78887 9.31073C4.89314 11.2065 3.82813 13.7776 3.82812 16.4586C3.82812 19.1396 4.89314 21.7107 6.78887 23.6065L8.73662 25.5542L23.0324 39.85L37.3281 25.5542L39.2759 23.6065C40.2148 22.668 40.9597 21.5537 41.4679 20.3272C41.976 19.1007 42.2376 17.7862 42.2376 16.4586C42.2376 15.131 41.976 13.8165 41.4679 12.59C40.9597 11.3636 40.2148 10.2492 39.2759 9.31073V9.31073Z" stroke="#FDC761" stroke-width="2" stroke-linecap="round" stroke-linejoin="round"/>
</svg>
