<svg width="30" height="30" viewBox="0 0 30 30" fill="none" xmlns="http://www.w3.org/2000/svg">
<path d="M26.05 5.76234C25.4116 5.1236 24.6535 4.6169 23.8192 4.2712C22.9849 3.92549 22.0906 3.74756 21.1875 3.74756C20.2844 3.74756 19.3902 3.92549 18.5558 4.2712C17.7215 4.6169 16.9635 5.1236 16.325 5.76234L15 7.08734L13.675 5.76234C12.3854 4.47273 10.6363 3.74823 8.81253 3.74823C6.98874 3.74823 5.23964 4.47273 3.95003 5.76234C2.66041 7.05196 1.93591 8.80105 1.93591 10.6248C1.93591 12.4486 2.66041 14.1977 3.95003 15.4873L5.27503 16.8123L15 26.5373L24.725 16.8123L26.05 15.4873C26.6888 14.8489 27.1955 14.0909 27.5412 13.2565C27.8869 12.4222 28.0648 11.5279 28.0648 10.6248C28.0648 9.72173 27.8869 8.82747 27.5412 7.99315C27.1955 7.15882 26.6888 6.40079 26.05 5.76234V5.76234Z" stroke="#606060" stroke-width="2" stroke-linecap="round" stroke-linejoin="round"/>
</svg>
