<svg width="25" height="24" viewBox="0 0 25 24" fill="none" xmlns="http://www.w3.org/2000/svg">
<path d="M12.2501 21.1717L11.9501 21.0417C7.24006 18.9517 2.23006 14.8517 2.25006 9.59169C2.26006 6.49169 3.98006 4.00169 6.73006 3.12169C8.84006 2.44169 10.7701 2.95169 12.2501 4.56169C13.7301 2.95169 15.6601 2.44169 17.7701 3.12169C20.5201 4.01169 22.2401 6.49169 22.2501 9.60169C22.2801 14.8517 17.2601 18.9517 12.5501 21.0417L12.2501 21.1717ZM8.50006 4.32169C8.08006 4.32169 7.65006 4.39169 7.19006 4.54169C4.66006 5.35169 3.75006 7.69169 3.75006 9.60169C3.73006 14.0217 8.25006 17.6717 12.2501 19.5217C16.2501 17.6717 20.7701 14.0217 20.7501 9.60169C20.7501 7.69169 19.8301 5.36169 17.3101 4.54169C15.5201 3.96169 14.0301 4.52169 12.8701 6.18169L12.2501 7.06169L11.6301 6.18169C10.7701 4.94169 9.72006 4.31169 8.50006 4.31169V4.32169Z" fill="black"/>
</svg>
