<svg width="25" height="24" viewBox="0 0 25 24" fill="none" xmlns="http://www.w3.org/2000/svg">
<path fill-rule="evenodd" clip-rule="evenodd" d="M7.97078 1.9992H16.6408C20.0308 1.9992 22.3008 4.3792 22.3008 7.9192V16.0902C22.3008 19.6202 20.0308 21.9992 16.6408 21.9992H7.97078C4.58078 21.9992 2.30078 19.6202 2.30078 16.0902V7.9192C2.30078 4.3792 4.58078 1.9992 7.97078 1.9992ZM12.2909 9.06022C11.8209 9.06022 11.4309 8.66922 11.4309 8.19022C11.4309 7.70022 11.8209 7.31022 12.3109 7.31022C12.7909 7.31022 13.1809 7.70022 13.1809 8.19022C13.1809 8.66922 12.7909 9.06022 12.2909 9.06022ZM13.1707 15.7802C13.1707 16.2602 12.7807 16.6502 12.2907 16.6502C11.8107 16.6502 11.4207 16.2602 11.4207 15.7802V11.3602C11.4207 10.8792 11.8107 10.4802 12.2907 10.4802C12.7807 10.4802 13.1707 10.8792 13.1707 11.3602V15.7802Z" fill="#B6B6B6"/>
</svg>
