<svg width="41" height="40" viewBox="0 0 41 40" fill="none" xmlns="http://www.w3.org/2000/svg">
<path fill-rule="evenodd" clip-rule="evenodd" d="M14.8782 4.89466C18.5197 2.77883 22.9956 2.81581 26.6028 4.99153C30.1746 7.21156 32.3455 11.1737 32.3252 15.4358C32.2421 19.6699 29.9143 23.65 27.0046 26.7269C25.3252 28.5107 23.4465 30.0881 21.4069 31.4268C21.1969 31.5482 20.9668 31.6296 20.728 31.6667C20.4982 31.6569 20.2744 31.589 20.0768 31.4691C16.9629 29.4577 14.2311 26.8901 12.0127 23.89C10.1565 21.3856 9.10191 18.3601 8.99219 15.2241C8.98978 10.9538 11.2368 7.01049 14.8782 4.89466ZM16.9825 16.9913C17.595 18.5014 19.0408 19.4864 20.6449 19.4865C21.6957 19.494 22.7058 19.0731 23.4502 18.3175C24.1946 17.5619 24.6113 16.5344 24.6076 15.464C24.6132 13.8301 23.6513 12.3539 22.171 11.7247C20.6906 11.0954 18.9839 11.4373 17.8477 12.5906C16.7115 13.7439 16.3699 15.4812 16.9825 16.9913Z" fill="#606060"/>
<ellipse opacity="0.4" cx="20.6576" cy="35" rx="8.33333" ry="1.66667" fill="#606060"/>
</svg>
