<svg width="162" height="78" viewBox="0 0 162 78" fill="none" xmlns="http://www.w3.org/2000/svg">
<path d="M6.208 59.248V17.264H13.76L39.744 50.672V17.264H47.296V59.248H53.504V62H39.104L13.76 29.36V62H0V59.248H6.208ZM59.708 59.248V17.264H67.26V59.248H73.468V62H53.5V59.248H59.708ZM79.6455 59.248V17.264H87.1975V59.248H93.4055V62H73.4375V59.248H79.6455ZM141.823 59.248V62H93.375V59.248H108.863C105.151 57.3707 102.186 54.6187 99.967 50.992C97.791 47.3653 96.703 43.2693 96.703 38.704C96.703 32.176 98.9643 26.8 103.487 22.576C108.01 18.3093 113.492 16.176 119.935 16.176C126.42 16.176 131.796 18.0533 136.063 21.808L132.031 27.568C130.282 26.0747 128.511 25.0507 126.719 24.496C124.97 23.8987 122.922 23.6 120.575 23.6C116.01 23.6 112.191 24.9653 109.119 27.696C106.09 30.4267 104.575 34.16 104.575 38.896C104.575 43.632 106.068 47.4507 109.055 50.352C112.042 53.2107 115.647 54.64 119.871 54.64C124.138 54.64 127.7 53.7227 130.559 51.888V39.6H138.111V54.896C136.532 56.6453 134.612 58.096 132.351 59.248H141.823ZM148.021 59.248V17.264H155.573V59.248H161.781V62H141.812V59.248H148.021Z" fill="#FDC761"/>
</svg>
