<svg width="120" height="120" viewBox="0 0 120 120" fill="none" xmlns="http://www.w3.org/2000/svg">
<rect width="120" height="120" fill="#F5F5F5"/>
<g id="&#230;&#182;&#136;&#232;&#178;&#187;&#232;&#128;&#133;-&#230;&#159;&#165;&#231;&#156;&#139;&#232;&#168;&#130;&#229;&#150;&#174;&#231;&#154;&#132;&#229;&#176;&#154;&#230;&#156;&#170;&#228;&#187;&#152;&#230;&#172;&#190;">
<path d="M-415 -490C-415 -491.105 -414.105 -492 -413 -492H1023C1024.1 -492 1025 -491.105 1025 -490V1682C1025 1683.1 1024.1 1684 1023 1684H-413C-414.105 1684 -415 1683.1 -415 1682V-490Z" fill="white"/>
<g id="Main">
<rect id="main content box" x="-75" y="-312" width="980" height="1765" fill="white"/>
<g id="&#232;&#168;&#130;&#229;&#150;&#174;">
<rect id="Rectangle 234" x="-60" y="-156" width="950" height="510" fill="white"/>
<g id="&#229;&#173;&#144;&#232;&#168;&#130;&#229;&#150;&#174;">
<rect id="Rectangle 235" opacity="0.5" x="-35" y="-26" width="900" height="180" fill="white"/>
<g id="&#232;&#168;&#130;&#229;&#150;&#174;&#232;&#179;&#135;&#232;&#168;&#138;">
<path id="&#231;&#133;&#167;&#231;&#137;&#135;" d="M0 0H120V120H0V0Z" fill="#D9D9D9"/>
</g>
</g>
</g>
</g>
<path d="M-413 -491H1023V-493H-413V-491ZM1024 -490V1682H1026V-490H1024ZM1023 1683H-413V1685H1023V1683ZM-414 1682V-490H-416V1682H-414ZM-413 1683C-413.552 1683 -414 1682.55 -414 1682H-416C-416 1683.66 -414.657 1685 -413 1685V1683ZM1024 1682C1024 1682.55 1023.55 1683 1023 1683V1685C1024.66 1685 1026 1683.66 1026 1682H1024ZM1023 -491C1023.55 -491 1024 -490.552 1024 -490H1026C1026 -491.657 1024.66 -493 1023 -493V-491ZM-413 -493C-414.657 -493 -416 -491.657 -416 -490H-414C-414 -490.552 -413.552 -491 -413 -491V-493Z" fill="black" fill-opacity="0.1"/>
</g>
</svg>
