<svg width="23" height="24" viewBox="0 0 23 24" fill="none" xmlns="http://www.w3.org/2000/svg">
<mask id="mask0_642_15771" style="mask-type:luminance" maskUnits="userSpaceOnUse" x="2" y="3" width="19" height="20">
<path fill-rule="evenodd" clip-rule="evenodd" d="M2.59375 3.00037H20.4487V22.4994H2.59375V3.00037Z" fill="white"/>
</mask>
<g mask="url(#mask0_642_15771)">
<path fill-rule="evenodd" clip-rule="evenodd" d="M10.6563 14.8178L14.005 20.7508C14.1515 21.0108 14.3804 21.0078 14.4729 20.9938C14.5654 20.9798 14.7879 20.9178 14.8685 20.6228L19.0559 5.17777C19.1292 4.90477 18.9946 4.71877 18.9341 4.65277C18.8755 4.58677 18.7079 4.44577 18.4653 4.52077L4.31244 9.04677C4.04415 9.13277 3.98554 9.37877 3.97272 9.47977C3.9599 9.58277 3.95624 9.83777 4.1934 10.0008L9.68844 13.7538L14.5434 8.39577C14.8099 8.10177 15.2448 8.09877 15.5149 8.38977C15.7851 8.68077 15.7869 9.15677 15.5204 9.45077L10.6563 14.8178ZM14.4015 22.4998C13.7642 22.4998 13.1799 22.1458 12.8357 21.5378L9.28553 15.2468L3.46543 11.2718C2.83819 10.8428 2.51037 10.0788 2.61201 9.27577C2.71274 8.47277 3.21728 7.83477 3.92602 7.60777L18.0789 3.08177C18.7299 2.87377 19.4277 3.07077 19.9075 3.59277C20.3873 4.11977 20.5659 4.88977 20.3717 5.60377L16.1843 21.0478C15.9746 21.8248 15.3886 22.3738 14.6551 22.4808C14.569 22.4928 14.4857 22.4998 14.4015 22.4998V22.4998Z" fill="#4C4C4C"/>
</g>
</svg>
