<svg width="35" height="34" viewBox="0 0 35 34" fill="none" xmlns="http://www.w3.org/2000/svg">
<path d="M33.3712 1.29721C32.5379 0.445538 31.3046 0.130538 30.1546 0.463872L3.33789 8.21221C2.12455 8.54887 1.26455 9.51054 1.03289 10.7305C0.796221 11.9739 1.62289 13.5539 2.70289 14.2139L11.0879 19.3339C11.9479 19.8605 13.0579 19.7289 13.7696 19.0155L23.3712 9.41387C23.8546 8.91221 24.6546 8.91221 25.1379 9.41387C25.6212 9.89554 25.6212 10.6805 25.1379 11.1805L15.5196 20.7822C14.8062 21.4955 14.6729 22.6022 15.1979 23.4639L20.3212 31.8805C20.9212 32.8789 21.9546 33.4472 23.0879 33.4472C23.2212 33.4472 23.3712 33.4472 23.5046 33.4289C24.8046 33.2639 25.8379 32.3789 26.2212 31.1289L34.1712 4.51387C34.5212 3.38054 34.2046 2.14721 33.3712 1.29721" fill="#606060"/>
<path opacity="0.4" fill-rule="evenodd" clip-rule="evenodd" d="M2.67536 25.013C2.35536 25.013 2.03536 24.8914 1.79203 24.6464C1.3037 24.158 1.3037 23.368 1.79203 22.8797L4.06703 20.603C4.55537 20.1164 5.34703 20.1164 5.83537 20.603C6.32203 21.0914 6.32203 21.883 5.83537 22.3714L3.5587 24.6464C3.31536 24.8914 2.99536 25.013 2.67536 25.013ZM8.94403 27.0004C8.62403 27.0004 8.30403 26.8787 8.0607 26.6337C7.57237 26.1454 7.57237 25.3554 8.0607 24.867L10.3357 22.5904C10.824 22.1037 11.6157 22.1037 12.104 22.5904C12.5907 23.0787 12.5907 23.8704 12.104 24.3587L9.82736 26.6337C9.58403 26.8787 9.26403 27.0004 8.94403 27.0004ZM9.36687 32.947C9.6102 33.192 9.9302 33.3137 10.2502 33.3137C10.5702 33.3137 10.8902 33.192 11.1335 32.947L13.4102 30.672C13.8969 30.1837 13.8969 29.392 13.4102 28.9037C12.9219 28.417 12.1302 28.417 11.6419 28.9037L9.36687 31.1804C8.87853 31.6687 8.87853 32.4587 9.36687 32.947Z" fill="#606060"/>
</svg>
