<svg width="25" height="24" viewBox="0 0 25 24" fill="none" xmlns="http://www.w3.org/2000/svg">
<path fill-rule="evenodd" clip-rule="evenodd" d="M20.7031 13.5801C21.0608 13.7701 21.3367 14.0701 21.5309 14.3701C21.909 14.9901 21.8784 15.7501 21.5105 16.4201L20.7951 17.6201C20.417 18.2601 19.7118 18.6601 18.9862 18.6601C18.6286 18.6601 18.23 18.5601 17.903 18.3601C17.6373 18.1901 17.3307 18.1301 17.0036 18.1301C15.9919 18.1301 15.1437 18.9601 15.113 19.9501C15.113 21.1001 14.1728 22.0001 12.9976 22.0001H11.6077C10.4222 22.0001 9.48203 21.1001 9.48203 19.9501C9.4616 18.9601 8.61337 18.1301 7.60163 18.1301C7.26439 18.1301 6.9578 18.1901 6.70231 18.3601C6.37528 18.5601 5.9665 18.6601 5.61904 18.6601C4.88323 18.6601 4.17808 18.2601 3.79995 17.6201L3.0948 16.4201C2.71668 15.7701 2.69624 14.9901 3.07436 14.3701C3.23788 14.0701 3.54446 13.7701 3.89193 13.5801C4.17808 13.4401 4.36203 13.2101 4.53576 12.9401C5.04674 12.0801 4.74015 10.9501 3.87149 10.4401C2.85975 9.87011 2.53272 8.60011 3.11524 7.61011L3.79995 6.43011C4.39269 5.44011 5.65991 5.09011 6.68187 5.67011C7.57097 6.15011 8.72579 5.83011 9.24698 4.98011C9.4105 4.70011 9.50247 4.40011 9.48203 4.10011C9.4616 3.71011 9.57401 3.34011 9.76818 3.04011C10.1463 2.42011 10.831 2.02011 11.577 2.00011H13.018C13.7743 2.00011 14.459 2.42011 14.8371 3.04011C15.021 3.34011 15.1437 3.71011 15.113 4.10011C15.0926 4.40011 15.1846 4.70011 15.3481 4.98011C15.8693 5.83011 17.0241 6.15011 17.9234 5.67011C18.9351 5.09011 20.2126 5.44011 20.7951 6.43011L21.4798 7.61011C22.0725 8.60011 21.7455 9.87011 20.7236 10.4401C19.8549 10.9501 19.5483 12.0801 20.0695 12.9401C20.233 13.2101 20.417 13.4401 20.7031 13.5801ZM9.41039 12.0101C9.41039 13.5801 10.7083 14.8301 12.3128 14.8301C13.9172 14.8301 15.1845 13.5801 15.1845 12.0101C15.1845 10.4401 13.9172 9.18011 12.3128 9.18011C10.7083 9.18011 9.41039 10.4401 9.41039 12.0101Z" fill="#B6B6B6"/>
</svg>
