<svg width="45" height="45" viewBox="0 0 45 45" fill="none" xmlns="http://www.w3.org/2000/svg">
<path fill-rule="evenodd" clip-rule="evenodd" d="M37.4893 24.9535C38.1466 25.3027 38.6536 25.8539 39.0104 26.4052C39.7052 27.5444 39.6488 28.9409 38.9728 30.172L37.6583 32.377C36.9635 33.553 35.6678 34.288 34.3345 34.288C33.6773 34.288 32.9449 34.1043 32.344 33.7368C31.8558 33.4244 31.2924 33.3142 30.6915 33.3142C28.8324 33.3142 27.2738 34.8393 27.2175 36.6584C27.2175 38.7715 25.4899 40.4253 23.3303 40.4253H20.7765C18.5982 40.4253 16.8706 38.7715 16.8706 36.6584C16.833 34.8393 15.2744 33.3142 13.4153 33.3142C12.7956 33.3142 12.2323 33.4244 11.7628 33.7368C11.1619 34.1043 10.4108 34.288 9.77229 34.288C8.42024 34.288 7.12453 33.553 6.42973 32.377L5.13401 30.172C4.43921 28.9777 4.40165 27.5444 5.09645 26.4052C5.39691 25.8539 5.96026 25.3027 6.59873 24.9535C7.12453 24.6963 7.46254 24.2737 7.78178 23.7775C8.7207 22.1973 8.15734 20.1209 6.56117 19.1838C4.70211 18.1364 4.1012 15.8028 5.17157 13.9837L6.42973 11.8154C7.51888 9.99629 9.84741 9.35317 11.7253 10.4189C13.359 11.3009 15.4809 10.7129 16.4386 9.15104C16.7391 8.63654 16.9081 8.08529 16.8706 7.53404C16.833 6.81742 17.0396 6.13754 17.3963 5.58629C18.0912 4.44704 19.3493 3.71204 20.7201 3.67529H23.3679C24.7575 3.67529 26.0157 4.44704 26.7105 5.58629C27.0485 6.13754 27.2738 6.81742 27.2175 7.53404C27.1799 8.08529 27.3489 8.63654 27.6494 9.15104C28.6071 10.7129 30.7291 11.3009 32.3816 10.4189C34.2406 9.35317 36.5879 9.99629 37.6583 11.8154L38.9165 13.9837C40.0056 15.8028 39.4047 18.1364 37.5269 19.1838C35.9307 20.1209 35.3673 22.1973 36.325 23.7775C36.6255 24.2737 36.9635 24.6963 37.4893 24.9535ZM16.7389 22.0687C16.7389 24.9536 19.1238 27.2504 22.072 27.2504C25.0202 27.2504 27.3487 24.9536 27.3487 22.0687C27.3487 19.1838 25.0202 16.8686 22.072 16.8686C19.1238 16.8686 16.7389 19.1838 16.7389 22.0687Z" fill="#FDC761"/>
</svg>
