<svg width="45" height="45" viewBox="0 0 45 45" fill="none" xmlns="http://www.w3.org/2000/svg">
<path fill-rule="evenodd" clip-rule="evenodd" d="M26.4774 21.0621H31.6671C32.454 21.0621 33.0723 20.4115 33.0723 19.627C33.0723 18.8234 32.454 18.1919 31.6671 18.1919H26.4774C25.6905 18.1919 25.0723 18.8234 25.0723 19.627C25.0723 20.4115 25.6905 21.0621 26.4774 21.0621ZM37.8311 11.114C38.9739 11.114 39.7234 11.5159 40.4728 12.3961C41.2222 13.2763 41.3533 14.5391 41.1847 15.6853L39.4049 28.2376C39.0676 30.6504 37.0442 32.428 34.6648 32.428H14.2245C11.7327 32.428 9.67178 30.4782 9.46569 27.9524L7.74203 7.09388L4.91299 6.59638C4.16357 6.46244 3.63898 5.71619 3.77013 4.95081C3.90127 4.16821 4.63195 3.64966 5.40011 3.76638L9.8685 4.45331C10.5055 4.57004 10.9739 5.10389 11.0301 5.75446L11.3861 10.0406C11.4423 10.6548 11.9294 11.114 12.5289 11.114H37.8311ZM13.9243 35.4522C12.3506 35.4522 11.0766 36.7534 11.0766 38.3607C11.0766 39.9489 12.3506 41.25 13.9243 41.25C15.4794 41.25 16.7534 39.9489 16.7534 38.3607C16.7534 36.7534 15.4794 35.4522 13.9243 35.4522ZM35.0017 35.4522C33.4279 35.4522 32.1539 36.7534 32.1539 38.3607C32.1539 39.9489 33.4279 41.25 35.0017 41.25C36.5567 41.25 37.8307 39.9489 37.8307 38.3607C37.8307 36.7534 36.5567 35.4522 35.0017 35.4522Z" fill="#FDC761"/>
</svg>
