<svg width="1000" height="1000" viewBox="0 0 1000 1000" fill="none" xmlns="http://www.w3.org/2000/svg">
<rect width="1000" height="1000" fill="white"/>
<path d="M295.552 450.752H337.152V459.2H295.552V450.752ZM292.736 491.328H341.632V500.032H292.736V491.328ZM313.856 495.552H323.072V550.976C323.072 556.096 322.048 558.912 318.336 560.32C314.752 561.856 309.12 561.984 300.288 561.984C299.904 559.424 298.496 555.456 297.216 552.896C303.744 553.024 309.76 553.024 311.552 552.896C313.344 552.896 313.856 552.384 313.856 550.848V495.552ZM334.208 450.752H336.256L338.048 450.24L344.192 454.336C338.048 464.192 328.832 475.2 320.768 481.984C319.36 480.32 316.8 477.76 315.136 476.352C322.176 470.336 330.24 459.968 334.208 452.672V450.752ZM338.944 491.328H340.352L341.76 490.944L347.776 492.608C344.448 502.592 340.352 513.728 337.024 520.768L329.6 518.848C332.672 512.32 336.384 501.568 338.944 492.736V491.328ZM299.136 473.152L304.256 466.752C315.008 472.384 327.936 480.96 334.208 487.488L328.704 494.528C322.56 487.872 309.888 478.912 299.136 473.152ZM345.088 450.496H410.112V458.816H345.088V450.496ZM358.912 498.112V510.656H396.416V498.112H358.912ZM358.912 517.696V530.368H396.416V517.696H358.912ZM358.912 478.528V490.944H396.416V478.528H358.912ZM349.952 471.104H405.76V537.92H349.952V471.104ZM372.608 454.592L383.488 455.872C381.312 463.296 379.008 471.36 376.96 476.736L368.512 475.072C370.048 469.312 371.84 460.48 372.608 454.592ZM362.752 540.224L371.2 545.216C364.16 552 352.128 558.912 341.888 562.752C340.48 560.832 337.408 557.888 335.488 556.224C345.728 552.512 357.248 545.856 362.752 540.224ZM382.592 545.728L389.888 540.864C397.696 545.344 407.552 552.256 412.8 557.12L405.12 562.624C400.384 557.888 390.528 550.592 382.592 545.728ZM449.792 516.928V523.072H509.696V516.928H449.792ZM449.792 528.704V534.976H509.696V528.704H449.792ZM449.792 505.28V511.296H509.696V505.28H449.792ZM440.704 499.392H519.168V540.736H440.704V499.392ZM487.552 537.28H497.024V549.824C497.024 552.64 498.048 553.024 503.936 553.024C506.624 553.024 520.448 553.024 524.288 553.024C529.024 553.024 529.92 551.744 530.304 541.248C532.352 542.528 535.936 543.808 538.496 544.32C537.472 557.504 534.656 560.704 525.184 560.704C522.496 560.704 505.6 560.704 503.168 560.704C490.752 560.704 487.552 558.528 487.552 549.824V537.28ZM460.288 537.664H469.76C466.048 552.896 455.552 559.168 425.6 562.24C424.96 560.192 422.784 556.608 421.248 554.816C448.512 552.768 457.216 548.544 460.288 537.664ZM492.416 463.68H530.56V469.824H492.416V463.68ZM491.264 452.032H536.96V458.688H491.264V452.032ZM449.152 451.52H456.96V463.552H449.152V451.52ZM449.152 477.248H456.96V489.536H449.152V477.248ZM432.384 461.376H474.88V480.448H432.384V474.56H466.56V467.392H432.384V461.376ZM519.552 480.192V489.536H527.744V480.192H519.552ZM505.728 480.192V489.536H513.92V480.192H505.728ZM492.288 480.192V489.536H500.096V480.192H492.288ZM485.376 474.816H534.912V494.912H485.376V474.816ZM491.904 444.608L500.48 445.888C497.152 454.976 491.904 464.192 483.072 471.744C481.536 469.824 478.592 467.264 476.544 466.24C484.48 459.968 489.344 451.776 491.904 444.608ZM478.464 448.832V455.104H435.712V487.872H479.488V494.016H427.264V448.832H478.464ZM590.336 469.696V478.144H625.024V469.696H590.336ZM582.4 463.936H633.344V483.904H582.4V463.936ZM585.856 507.328V535.872H629.504V507.328H585.856ZM578.176 501.312H637.568V542.016H578.176V501.312ZM600.064 517.824V525.376H615.04V517.824H600.064ZM594.048 512.832H621.312V530.496H594.048V512.832ZM569.472 489.792H646.656V495.808H569.472V489.792ZM603.264 480.064H611.712V492.48H603.264V480.064ZM554.496 449.728H661.76V562.112H652.288V457.92H563.584V562.112H554.496V449.728ZM560.128 548.928H657.28V557.12H560.128V548.928Z" fill="#D9D9D9"/>
</svg>
