<svg width="31" height="30" viewBox="0 0 31 30" fill="none" xmlns="http://www.w3.org/2000/svg">
<path d="M23.1439 17.9C22.8094 18.2138 22.6557 18.6675 22.7319 19.1125L23.8802 25.2625C23.977 25.7838 23.7497 26.3113 23.2989 26.6125C22.8572 26.925 22.2695 26.9625 21.7877 26.7125L16.0669 23.825C15.868 23.7225 15.6471 23.6675 15.421 23.6613H15.071C14.9496 23.6788 14.8307 23.7163 14.7222 23.7738L9.00016 26.675C8.71729 26.8125 8.39695 26.8613 8.08308 26.8125C7.31841 26.6725 6.8082 25.9675 6.9335 25.2238L8.08308 19.0738C8.15929 18.625 8.00558 18.1688 7.67104 17.85L3.00683 13.475C2.61675 13.1088 2.48112 12.5588 2.65937 12.0625C2.83245 11.5675 3.2742 11.2063 3.80766 11.125L10.2272 10.2238C10.7155 10.175 11.1443 9.8875 11.3639 9.4625L14.1927 3.85C14.2598 3.725 14.3464 3.61 14.451 3.5125L14.5672 3.425C14.628 3.36 14.6977 3.30625 14.7752 3.2625L14.916 3.2125L15.1356 3.125H15.6794C16.165 3.17375 16.5926 3.455 16.816 3.875L19.6822 9.4625C19.8889 9.87125 20.2906 10.155 20.7543 10.2238L27.1739 11.125C27.7164 11.2 28.1698 11.5625 28.3493 12.0625C28.5185 12.5638 28.3726 13.1138 27.9747 13.475L23.1439 17.9Z" fill="#FDC761"/>
</svg>
