<svg width="26" height="25" viewBox="0 0 26 25" fill="none" xmlns="http://www.w3.org/2000/svg">
<path d="M19.1642 14.9167C18.8944 15.1782 18.7704 15.5563 18.8319 15.9272L19.7579 21.0522C19.8361 21.4865 19.6527 21.9261 19.2892 22.1772C18.9329 22.4376 18.459 22.4688 18.0704 22.2605L13.4569 19.8542C13.2965 19.7688 13.1184 19.723 12.9361 19.7178H12.6538C12.5559 19.7324 12.46 19.7636 12.3725 19.8115L7.75794 22.2292C7.52982 22.3438 7.27149 22.3845 7.01836 22.3438C6.40169 22.2272 5.99024 21.6397 6.09128 21.0199L7.01836 15.8949C7.07982 15.5209 6.95586 15.1407 6.68607 14.8751L2.92461 11.2292C2.61003 10.924 2.50065 10.4657 2.6444 10.0522C2.78399 9.63966 3.14024 9.33862 3.57044 9.27091L8.74753 8.51987C9.14128 8.47925 9.48711 8.23966 9.66419 7.8855L11.9454 3.20841C11.9996 3.10425 12.0694 3.00841 12.1538 2.92716L12.2475 2.85425C12.2965 2.80008 12.3527 2.75529 12.4152 2.71883L12.5288 2.67716L12.7059 2.60425H13.1444C13.5361 2.64487 13.8809 2.87925 14.0611 3.22925L16.3725 7.8855C16.5392 8.22612 16.8632 8.46258 17.2371 8.51987L22.4142 9.27091C22.8517 9.33341 23.2173 9.6355 23.3621 10.0522C23.4986 10.4699 23.3809 10.9282 23.06 11.2292L19.1642 14.9167Z" stroke="#FDC761"/>
</svg>
