<svg width="27" height="24" viewBox="0 0 27 24" fill="none" xmlns="http://www.w3.org/2000/svg">
<path d="M21.1439 14.9C20.8094 15.2138 20.6557 15.6675 20.7319 16.1125L21.8802 22.2625C21.977 22.7838 21.7497 23.3113 21.2989 23.6125C20.8572 23.925 20.2695 23.9625 19.7877 23.7125L14.0669 20.825C13.868 20.7225 13.6471 20.6675 13.421 20.6613H13.071C12.9496 20.6788 12.8307 20.7163 12.7222 20.7738L7.00016 23.675C6.71729 23.8125 6.39695 23.8613 6.08308 23.8125C5.31841 23.6725 4.8082 22.9675 4.9335 22.2238L6.08308 16.0738C6.15929 15.625 6.00558 15.1688 5.67104 14.85L1.00683 10.475C0.616746 10.1088 0.481121 9.55875 0.659371 9.0625C0.832454 8.5675 1.2742 8.20625 1.80766 8.125L8.22725 7.22375C8.7155 7.175 9.14433 6.8875 9.36391 6.4625L12.1927 0.85C12.2598 0.725 12.3464 0.61 12.451 0.5125L12.5672 0.425C12.628 0.36 12.6977 0.30625 12.7752 0.2625L12.916 0.2125L13.1356 0.125H13.6794C14.165 0.17375 14.5926 0.455 14.816 0.875L17.6822 6.4625C17.8889 6.87125 18.2906 7.155 18.7543 7.22375L25.1739 8.125C25.7164 8.2 26.1698 8.5625 26.3493 9.0625C26.5185 9.56375 26.3726 10.1138 25.9747 10.475L21.1439 14.9Z" fill="#EEEEEE"/>
</svg>
