<svg width="25" height="25" viewBox="0 0 25 25" fill="none" xmlns="http://www.w3.org/2000/svg">
<path d="M18.6642 14.9167C18.3944 15.1782 18.2704 15.5563 18.3319 15.9272L19.2579 21.0522C19.3361 21.4865 19.1527 21.9261 18.7892 22.1772C18.4329 22.4376 17.959 22.4688 17.5704 22.2605L12.9569 19.8542C12.7965 19.7688 12.6184 19.723 12.4361 19.7178H12.1538C12.0559 19.7324 11.96 19.7636 11.8725 19.8115L7.25794 22.2292C7.02982 22.3438 6.77149 22.3845 6.51836 22.3438C5.90169 22.2272 5.49024 21.6397 5.59128 21.0199L6.51836 15.8949C6.57982 15.5209 6.45586 15.1407 6.18607 14.8751L2.42461 11.2292C2.11003 10.924 2.00065 10.4657 2.1444 10.0522C2.28399 9.63966 2.64024 9.33862 3.07044 9.27091L8.24753 8.51987C8.64128 8.47925 8.98711 8.23966 9.16419 7.8855L11.4454 3.20841C11.4996 3.10425 11.5694 3.00841 11.6538 2.92716L11.7475 2.85425C11.7965 2.80008 11.8527 2.75529 11.9152 2.71883L12.0288 2.67716L12.2059 2.60425H12.6444C13.0361 2.64487 13.3809 2.87925 13.5611 3.22925L15.8725 7.8855C16.0392 8.22612 16.3632 8.46258 16.7371 8.51987L21.9142 9.27091C22.3517 9.33341 22.7173 9.6355 22.8621 10.0522C22.9986 10.4699 22.8809 10.9282 22.56 11.2292L18.6642 14.9167Z" fill="#FDC761"/>
</svg>
