<svg width="25" height="25" viewBox="0 0 25 25" fill="none" xmlns="http://www.w3.org/2000/svg">
<path opacity="0.4" d="M13.5176 3.24331L15.8369 7.90401C16.0077 8.24168 16.3339 8.47618 16.71 8.52829L21.9194 9.28701C22.2237 9.32974 22.4998 9.49023 22.6863 9.73515C22.8707 9.97694 22.9499 10.2833 22.9051 10.5845C22.8686 10.8347 22.7509 11.066 22.5706 11.2432L18.7958 14.9024C18.5197 15.1577 18.3947 15.536 18.4614 15.906L19.3908 21.0503C19.4897 21.6714 19.0782 22.2571 18.4614 22.3749C18.2072 22.4156 17.9467 22.3728 17.7175 22.2561L13.0707 19.8351C12.7258 19.661 12.3184 19.661 11.9735 19.8351L7.32672 22.2561C6.75576 22.5594 6.04832 22.353 5.73054 21.7902C5.61281 21.5662 5.57113 21.3108 5.60968 21.0617L6.53905 15.9164C6.60573 15.5475 6.47966 15.1671 6.2046 14.9117L2.42984 11.2547C1.98078 10.8211 1.96724 10.1072 2.39962 9.65803C2.409 9.64865 2.41942 9.63823 2.42984 9.6278C2.60904 9.44542 2.84451 9.32974 3.09873 9.29951L8.30818 8.53975C8.68326 8.4866 9.00937 8.25419 9.18128 7.91443L11.4172 3.24331C11.6162 2.8431 12.0288 2.59402 12.4768 2.60444H12.6164C13.005 2.65134 13.3436 2.89209 13.5176 3.24331" fill="#FDC761"/>
<path d="M12.4923 19.7053C12.2906 19.7115 12.094 19.7658 11.9172 19.8627L7.29307 22.2782C6.72728 22.5482 6.0502 22.3387 5.73298 21.7976C5.61545 21.5766 5.57281 21.3233 5.61233 21.0752L6.5359 15.9407C6.59831 15.5675 6.4735 15.188 6.20205 14.9253L2.42559 11.2692C1.97732 10.8303 1.969 10.1099 2.4079 9.6606C2.41415 9.65434 2.41935 9.64913 2.42559 9.64392C2.60448 9.46669 2.83537 9.34992 3.08394 9.31344L8.29777 8.54614C8.67531 8.49818 9.00293 8.26257 9.16934 7.92063L11.4356 3.19071C11.6509 2.80914 12.0638 2.58187 12.5007 2.60585C12.4923 2.91548 12.4923 19.4947 12.4923 19.7053" fill="#FDC761"/>
</svg>
