<svg width="35" height="32" viewBox="0 0 35 32" fill="none" xmlns="http://www.w3.org/2000/svg">
<path d="M27.5236 19.8669C27.092 20.2852 26.8936 20.8902 26.992 21.4835L28.4736 29.6835C28.5986 30.3785 28.3053 31.0819 27.7236 31.4835C27.1536 31.9002 26.3953 31.9502 25.7736 31.6169L18.392 27.7669C18.1353 27.6302 17.8503 27.5569 17.5586 27.5485H17.107C16.9503 27.5719 16.797 27.6219 16.657 27.6985L9.27365 31.5669C8.90865 31.7502 8.49531 31.8152 8.09031 31.7502C7.10365 31.5635 6.44531 30.6235 6.60698 29.6319L8.09031 21.4319C8.18865 20.8335 7.99031 20.2252 7.55865 19.8002L1.54031 13.9669C1.03698 13.4785 0.861981 12.7452 1.09198 12.0835C1.31531 11.4235 1.88531 10.9419 2.57365 10.8335L10.857 9.63187C11.487 9.56687 12.0403 9.18354 12.3236 8.61687L15.9736 1.13354C16.0603 0.96687 16.172 0.813537 16.307 0.683537L16.457 0.56687C16.5353 0.480203 16.6253 0.408537 16.7253 0.350203L16.907 0.283537L17.1903 0.16687H17.892C18.5186 0.23187 19.0703 0.60687 19.3586 1.16687L23.057 8.61687C23.3236 9.16187 23.842 9.5402 24.4403 9.63187L32.7236 10.8335C33.4236 10.9335 34.0086 11.4169 34.2403 12.0835C34.4586 12.7519 34.2703 13.4852 33.757 13.9669L27.5236 19.8669Z" fill="#606060"/>
</svg>
