<svg width="40" height="40" viewBox="0 0 40 40" fill="none" xmlns="http://www.w3.org/2000/svg">
<path fill-rule="evenodd" clip-rule="evenodd" d="M32.9337 20.0017C32.9337 21.3575 34.047 22.4606 35.4154 22.4606C36.1054 22.4606 36.6654 23.0155 36.6654 23.6992V28.1597C36.6654 31.9316 33.5687 35 29.762 35H10.237C6.43037 35 3.33203 31.9316 3.33203 28.1597V23.6992C3.33203 23.0155 3.89203 22.4606 4.58203 22.4606C5.95203 22.4606 7.06536 21.3575 7.06536 20.0017C7.06536 18.6805 5.99703 17.6863 4.58203 17.6863C4.25036 17.6863 3.9337 17.5559 3.6987 17.323C3.4637 17.0902 3.33203 16.7747 3.33203 16.4478L3.33536 11.8419C3.33536 8.07002 6.43203 5 10.2387 5H29.7587C33.5654 5 36.6637 8.07002 36.6637 11.8419L36.6654 16.3041C36.6654 16.6311 36.5337 16.9481 36.3004 17.1793C36.0654 17.4122 35.7487 17.5427 35.4154 17.5427C34.047 17.5427 32.9337 18.6458 32.9337 20.0017ZM23.752 21.08L25.717 19.1842C26.0587 18.8572 26.177 18.375 26.0287 17.9291C25.882 17.4832 25.4987 17.1661 25.0354 17.1017L22.3204 16.7087L21.1054 14.2712C20.897 13.8517 20.4737 13.5908 20.002 13.5891H19.9987C19.5287 13.5891 19.1054 13.85 18.8937 14.2695L17.6787 16.7087L14.9687 17.1001C14.5004 17.1661 14.117 17.4832 13.9687 17.9291C13.822 18.375 13.9404 18.8572 14.2804 19.1842L16.2454 21.08L15.782 23.7603C15.702 24.2227 15.8904 24.6818 16.2737 24.9576C16.4904 25.1112 16.742 25.1905 16.997 25.1905C17.192 25.1905 17.3887 25.1426 17.5687 25.0484L19.9987 23.7834L22.4237 25.0451C22.8437 25.2681 23.342 25.2334 23.7237 24.956C24.1087 24.6818 24.297 24.2227 24.217 23.7603L23.752 21.08Z" fill="#606060"/>
</svg>
