<svg width="40" height="40" viewBox="0 0 40 40" fill="none" xmlns="http://www.w3.org/2000/svg">
<path fill-rule="evenodd" clip-rule="evenodd" d="M36.6594 13.9585H29.6017C26.3172 13.9643 23.6565 16.5586 23.6506 19.7609C23.6461 22.9705 26.3098 25.5763 29.6017 25.5807H36.6654V26.0906C36.6654 31.6893 33.2713 35 27.5276 35H12.4713C6.72611 35 3.33203 31.6893 3.33203 26.0906V13.8964C3.33203 8.2977 6.72611 5 12.4713 5H27.5217C33.2654 5 36.6594 8.2977 36.6594 13.8964V13.9585ZM11.2313 13.9455H20.6313H20.6372H20.6491C21.3528 13.9427 21.9217 13.3836 21.9187 12.6961C21.9157 12.01 21.3409 11.4553 20.6372 11.4582H11.2313C10.532 11.4611 9.96462 12.0143 9.96166 12.6975C9.9587 13.3836 10.5276 13.9427 11.2313 13.9455Z" fill="#606060"/>
<path opacity="0.4" d="M26.7264 20.4944C27.0749 22.0798 28.4649 23.1951 30.0517 23.1661H35.4683C36.1285 23.1661 36.6641 22.6193 36.6641 21.9434V17.7242C36.6626 17.0497 36.1285 16.5015 35.4683 16.5H29.9242C28.1192 16.5058 26.6612 18.0041 26.6641 19.8505C26.6641 20.0666 26.6853 20.2827 26.7264 20.4944Z" fill="#606060"/>
<ellipse cx="29.9987" cy="19.8333" rx="1.66667" ry="1.66667" fill="#606060"/>
</svg>
