<svg width="25" height="24" viewBox="0 0 25 24" fill="none" xmlns="http://www.w3.org/2000/svg">
<path fill-rule="evenodd" clip-rule="evenodd" d="M18.0697 8.3818H22.3008C22.3008 4.98459 20.2652 3 16.8163 3H7.78523C4.33634 3 2.30078 4.98459 2.30078 8.33847V15.6615C2.30078 19.0154 4.33634 21 7.78523 21H16.8163C20.2652 21 22.3008 19.0154 22.3008 15.6615V15.3495H18.0697C16.106 15.3495 14.5141 13.7975 14.5141 11.883C14.5141 9.96849 16.106 8.41647 18.0697 8.41647V8.3818ZM18.0695 9.87242H21.5539C21.9663 9.87242 22.3006 10.1983 22.3006 10.6004V13.131C22.2958 13.5311 21.9643 13.8543 21.5539 13.8589H18.1495C17.1554 13.872 16.2861 13.2084 16.0606 12.2643C15.9477 11.6783 16.1062 11.0736 16.4937 10.6122C16.8812 10.1509 17.458 9.88008 18.0695 9.87242ZM18.2206 12.533H18.5495C18.9717 12.533 19.314 12.1993 19.314 11.7877C19.314 11.3761 18.9717 11.0424 18.5495 11.0424H18.2206C18.0187 11.0401 17.8242 11.1167 17.6806 11.2551C17.537 11.3935 17.4562 11.5821 17.4562 11.779C17.4562 12.1921 17.797 12.5282 18.2206 12.533ZM7.03869 8.38181H12.6831C13.1053 8.38181 13.4476 8.04813 13.4476 7.63651C13.4476 7.22488 13.1053 6.8912 12.6831 6.8912H7.03869C6.61995 6.89117 6.27912 7.21961 6.27425 7.62784C6.27422 8.04088 6.61507 8.37706 7.03869 8.38181Z" fill="#B6B6B6"/>
</svg>
