<svg width="45" height="45" viewBox="0 0 45 45" fill="none" xmlns="http://www.w3.org/2000/svg">
<path fill-rule="evenodd" clip-rule="evenodd" d="M32.6511 15.4008H40.4258C40.4258 9.15841 36.6854 5.51172 30.3481 5.51172H13.7534C7.41612 5.51172 3.67578 9.15841 3.67578 15.3212V28.7773C3.67578 34.94 7.41612 38.5867 13.7534 38.5867H30.3481C36.6854 38.5867 40.4258 34.94 40.4258 28.7773V28.204H32.6511C29.0429 28.204 26.1178 25.3522 26.1178 21.8342C26.1178 18.3163 29.0429 15.4645 32.6511 15.4645V15.4008ZM32.6508 18.1398H39.0535C39.8112 18.1398 40.4255 18.7387 40.4255 19.4774V24.1274C40.4166 24.8625 39.8075 25.4564 39.0535 25.465H32.7978C30.9711 25.489 29.3738 24.2696 28.9595 22.5349C28.752 21.4581 29.0433 20.3469 29.7552 19.4992C30.4672 18.6514 31.5271 18.1539 32.6508 18.1398ZM32.9285 23.0286H33.5328C34.3086 23.0286 34.9375 22.4155 34.9375 21.6591C34.9375 20.9027 34.3086 20.2896 33.5328 20.2896H32.9285C32.5575 20.2853 32.2001 20.4261 31.9362 20.6804C31.6723 20.9347 31.5238 21.2814 31.5238 21.6432C31.5238 22.4021 32.1501 23.0199 32.9285 23.0286ZM12.3817 15.4008H22.7534C23.5291 15.4008 24.158 14.7876 24.158 14.0313C24.158 13.2749 23.5291 12.6618 22.7534 12.6618H12.3817C11.6123 12.6617 10.986 13.2652 10.977 14.0154C10.977 14.7743 11.6033 15.3921 12.3817 15.4008Z" fill="#FDC761"/>
</svg>
